<svg width="313" height="38" viewBox="0 0 313 38" fill="none" xmlns="http://www.w3.org/2000/svg">
<path d="M300.45 37.4887C292.191 37.4887 287.41 34.1745 287.41 27.9808V27.8721H291.268V28.1981C291.268 32.7076 293.93 34.2832 300.504 34.2832C306.535 34.2832 308.599 32.8706 308.599 29.7737C308.599 26.9485 306.915 26.0249 302.46 25.3185L295.288 24.2863C290.399 23.6343 287.302 21.7327 287.302 17.2775C287.302 12.5507 291.811 9.5625 299.2 9.5625C306.915 9.5625 311.914 12.8224 311.914 19.1248V19.2335H308.056V18.9618C308.056 14.9413 305.937 12.768 299.092 12.768C293.441 12.768 291.105 14.1263 291.105 17.3319C291.105 20.1028 292.517 21.0807 296.973 21.7327L303.547 22.6563C309.306 23.4713 312.403 25.4272 312.403 29.7737C312.403 34.8265 307.404 37.4887 300.45 37.4887Z" fill="white"/>
<path d="M270.125 37.4887C261.541 37.4887 255.945 31.6753 255.945 23.5256C255.945 15.3759 261.541 9.5625 270.125 9.5625C277.623 9.5625 283.491 14.0177 283.491 20.4831V20.9177H279.687V20.5917C279.687 15.8106 276.21 13.094 270.071 13.094C262.899 13.094 259.802 16.9515 259.802 23.5256C259.802 30.0997 262.899 33.9572 270.071 33.9572C276.21 33.9572 279.687 31.2406 279.687 26.4595V26.1335H283.491V26.5682C283.491 33.0336 277.623 37.4887 270.125 37.4887Z" fill="white"/>
<path d="M250.814 6.68239H246.956V0.542969H250.814V6.68239ZM250.814 36.9449H246.956V10.1053H250.814V36.9449Z" fill="white"/>
<path d="M242.727 36.945H236.913C231.589 36.945 228.166 34.7175 228.166 28.415V13.4196H223.385V10.1054H228.166V3.69434H232.078V10.1054H242.727V13.4196H232.078V28.6324C232.078 32.3812 233.925 33.4135 237.837 33.4135H242.727V36.945Z" fill="white"/>
<path d="M206.517 37.4887C197.769 37.4887 191.956 31.6753 191.956 23.5256C191.956 15.3759 197.769 9.5625 206.517 9.5625C215.318 9.5625 221.132 15.3759 221.132 23.5256C221.132 31.6753 215.318 37.4887 206.517 37.4887ZM206.517 34.0115C213.906 34.0115 217.329 30.0454 217.329 23.5256C217.329 17.0602 213.906 13.0397 206.517 13.0397C199.128 13.0397 195.759 17.0602 195.759 23.5256C195.759 30.0454 199.128 34.0115 206.517 34.0115Z" fill="white"/>
<path d="M177.318 36.9449H157.65V0.542969H176.775C183.295 0.542969 187.587 3.80284 187.587 9.56195C187.587 13.7455 185.251 16.8967 180.252 17.6573V17.9833C185.848 18.9069 188.728 22.2211 188.728 26.8936C188.728 33.196 184.273 36.9449 177.318 36.9449ZM161.508 4.0745V16.4077H176.123C181.067 16.4077 183.729 14.4518 183.729 10.2683C183.729 6.03042 181.393 4.0745 176.449 4.0745H161.508ZM161.508 19.7219V33.4133H176.992C182.154 33.4133 184.816 31.2944 184.816 26.5133C184.816 21.8408 182.045 19.7219 176.992 19.7219H161.508Z" fill="white"/>
<path d="M133.668 37.4885C121.606 37.4885 114.108 30.0995 114.108 18.7443C114.108 7.38904 121.606 0 133.668 0C146.001 0 153.444 7.38904 153.444 18.7443C153.444 30.0995 146.001 37.4885 133.668 37.4885ZM133.668 29.6648C141.654 29.6648 144.751 26.8396 144.751 18.7443C144.751 10.6489 141.654 7.82369 133.668 7.82369C125.681 7.82369 122.747 10.6489 122.747 18.7443C122.747 26.8396 125.681 29.6648 133.668 29.6648Z" fill="#EC4E02"/>
<path d="M83.3859 36.9449H75.2362V0.542969H83.3859V14.9951H102.402V0.542969H110.552V36.9449H102.402V22.3298H83.3859V36.9449Z" fill="#EC4E02"/>
<path d="M53.1233 37.4885C41.1161 37.4885 33.6728 30.0995 33.6728 18.7443C33.6728 7.38904 41.1161 0 53.1233 0C64.4242 0 71.7046 5.65044 71.7046 14.8867V15.7017H62.6313V14.8867C62.6313 10.1056 59.9147 7.82369 53.2863 7.82369C45.2996 7.82369 42.3114 10.6489 42.3114 18.7443C42.3114 26.8396 45.2996 29.6648 53.2863 29.6648C59.9147 29.6648 62.6313 27.3829 62.6313 22.6018V21.7868H71.7046V22.6018C71.7046 31.8381 64.4785 37.4885 53.1233 37.4885Z" fill="#EC4E02"/>
<path d="M30.8057 36.9449H-9.15527e-05V0.542969H30.8057V7.87768H8.14959V14.9951H29.9907V22.2754H8.14959V29.6102H30.8057V36.9449Z" fill="#EC4E02"/>
</svg>
