<svg width="243" height="103" viewBox="0 0 243 103" fill="none" xmlns="http://www.w3.org/2000/svg">
<g clip-path="url(#clip0_1_353)">
<path d="M74.7027 46.8685L74.8895 54.655H74.2112C73.9727 52.8658 73.142 51.2079 71.8517 49.9456C70.7883 48.8357 69.3282 48.1922 67.7913 48.1565C67.3028 48.1358 66.815 48.2121 66.356 48.3808C65.897 48.5495 65.476 48.8074 65.1172 49.1395C64.8123 49.4121 64.5675 49.7452 64.3981 50.1176C64.229 50.4899 64.1389 50.8935 64.134 51.3025C64.1247 51.7837 64.2434 52.2586 64.4781 52.6788C64.8892 53.2873 65.4133 53.8114 66.0216 54.2223C67.163 54.9711 68.3481 55.6507 69.5708 56.2575C71.5836 57.1466 73.3911 58.4419 74.8796 60.0623C75.7777 61.2386 76.2555 62.6821 76.2365 64.1618C76.2451 65.1093 76.0544 66.048 75.6769 66.9168C75.2992 67.7858 74.7428 68.5654 74.044 69.2054C73.3034 69.9094 72.4298 70.4589 71.4744 70.822C70.5189 71.1848 69.501 71.3538 68.4796 71.3191C67.8176 71.3193 67.1578 71.2435 66.5133 71.093C65.7007 70.8791 64.9082 70.5964 64.1439 70.2475C63.7345 70.0661 63.2938 69.9661 62.846 69.9525C62.5127 69.968 62.1927 70.0885 61.9317 70.2966C61.5805 70.5686 61.3116 70.9327 61.1551 71.3486H60.5455V62.5005H61.1551C61.4678 64.6394 62.4485 66.6248 63.957 68.173C65.1312 69.3916 66.7385 70.0982 68.4302 70.1393C69.5139 70.1928 70.5745 69.8146 71.3798 69.0873C71.9396 68.5919 72.3124 67.9194 72.4358 67.1823C72.5593 66.4449 72.4259 65.6877 72.0581 65.0369C71.7323 64.4665 71.2981 63.9658 70.7801 63.5622C69.8255 62.8636 68.8086 62.2548 67.7422 61.7433C66.1927 60.9992 64.7205 60.1035 63.3474 59.0691C62.4993 58.3871 61.7971 57.5414 61.2829 56.5818C60.8073 55.6718 60.561 54.6593 60.5651 53.6325C60.5498 52.7469 60.7164 51.8677 61.0545 51.0493C61.3928 50.2307 61.8955 49.4903 62.5314 48.874C63.1755 48.2313 63.9433 47.7255 64.7879 47.3876C65.6329 47.0498 66.5374 46.8864 67.4472 46.9078C68.1624 46.8927 68.8763 46.972 69.5708 47.1437C70.2506 47.3316 70.9096 47.5887 71.5371 47.9106C72.0172 48.1963 72.5479 48.3866 73.1002 48.4711C73.2267 48.4775 73.3527 48.4562 73.4699 48.4086C73.5872 48.3612 73.6925 48.2884 73.7785 48.1957C74.0274 47.7923 74.1851 47.3394 74.2407 46.8685H74.7027ZM85.6451 68.3894C83.7575 70.1262 82.0664 70.9948 80.572 70.9948C80.1624 71.0053 79.7549 70.9304 79.3757 70.7746C78.9964 70.6188 78.654 70.3856 78.3698 70.0902C78.0808 69.7905 77.8546 69.4362 77.7042 69.0479C77.554 68.6596 77.4829 68.2452 77.4949 67.8289C77.5044 67.201 77.6449 66.5821 77.9071 66.0115C78.1696 65.4412 78.5482 64.9315 79.0188 64.5159C80.0346 63.5326 82.2435 62.2219 85.6451 60.5833V58.9612C85.6921 58.1893 85.6292 57.4147 85.4583 56.6605C85.309 56.3185 85.0586 56.0302 84.7405 55.8348C84.3889 55.5992 83.9743 55.4758 83.5511 55.4807C82.9227 55.4551 82.3028 55.6307 81.7813 55.9821C81.6542 56.0576 81.5479 56.1638 81.4725 56.2909C81.3969 56.4178 81.3544 56.562 81.3488 56.7096C81.3969 57.0516 81.56 57.367 81.8108 57.6043C82.1836 57.9896 82.4066 58.4949 82.44 59.0299C82.443 59.2973 82.3913 59.5626 82.2881 59.8093C82.1851 60.0563 82.0328 60.2795 81.8403 60.4652C81.6298 60.6652 81.3812 60.8206 81.1092 60.9219C80.8371 61.0233 80.5474 61.0686 80.2574 61.0552C79.6135 61.072 78.9887 60.8357 78.5174 60.3965C78.2982 60.2056 78.1226 59.9699 78.0022 59.7052C77.8817 59.4406 77.8194 59.1534 77.8192 58.8627C77.8494 57.9801 78.1987 57.1382 78.8025 56.4935C79.4896 55.7022 80.3755 55.1084 81.3684 54.7729C82.4978 54.3882 83.6853 54.2018 84.8782 54.2223C86.1149 54.1579 87.3384 54.5035 88.3585 55.2055C89.1135 55.7257 89.6927 56.4629 90.02 57.3192C90.2107 58.396 90.2769 59.4913 90.2166 60.5833V66.836C90.195 67.2995 90.2213 67.7641 90.2952 68.2222C90.3333 68.3844 90.4189 68.5318 90.5411 68.6449C90.648 68.7357 90.7844 68.7846 90.9244 68.7826C91.2129 68.7826 91.5045 68.5695 91.7995 68.1435L92.291 68.5566C91.854 69.2836 91.2716 69.9128 90.5805 70.4048C89.995 70.7847 89.312 70.9862 88.6142 70.9849C87.8697 71.0284 87.1352 70.7976 86.5495 70.3361C86.0142 69.8239 85.6914 69.1289 85.6451 68.3894ZM85.6451 67.131V61.7336C84.4955 62.3973 83.4922 63.2868 82.6956 64.3487C82.2901 64.8923 82.0634 65.5485 82.0468 66.2264C82.0438 66.7453 82.2409 67.2454 82.5973 67.6225C82.7447 67.7802 82.9251 67.9035 83.1257 67.9834C83.3263 68.0631 83.542 68.0978 83.7575 68.0847C84.4783 67.9957 85.1458 67.6585 85.6451 67.131ZM99.1632 56.3164V67.5242C99.0871 68.2204 99.2028 68.924 99.4974 69.5592C99.7581 69.8019 100.071 69.9812 100.412 70.0835C100.753 70.1859 101.113 70.2083 101.464 70.1492V70.7685H92.3304V70.1492C92.8373 70.1753 93.3436 70.0915 93.8149 69.9034C94.0873 69.7674 94.3006 69.5366 94.4146 69.2546C94.5583 68.693 94.6148 68.1127 94.5818 67.5341V56.3459H92.3304V54.655H94.5818V53.4653V52.6592C94.5605 51.886 94.7035 51.1172 95.002 50.4035C95.3002 49.6901 95.7469 49.0479 96.3121 48.5202C97.6063 47.37 99.3021 46.7763 101.031 46.8685C102.098 46.7877 103.161 47.0683 104.049 47.6648C104.338 47.8621 104.577 48.1237 104.748 48.4291C104.918 48.7344 105.016 49.0753 105.032 49.4246C105.033 49.6797 104.979 49.9321 104.874 50.1643C104.769 50.3968 104.615 50.6039 104.423 50.7716C103.977 51.165 103.395 51.3695 102.801 51.3417C102.303 51.3665 101.815 51.2012 101.434 50.8797C101.282 50.7535 101.158 50.596 101.072 50.418C100.985 50.2398 100.938 50.0454 100.933 49.8474C100.949 49.6321 100.982 49.4183 101.031 49.2085C101.074 49.0279 101.098 48.8432 101.1 48.6579C101.108 48.5603 101.095 48.4622 101.061 48.3705C101.027 48.2789 100.973 48.1957 100.903 48.127C100.818 48.0425 100.717 47.9763 100.605 47.9324C100.494 47.8886 100.374 47.8677 100.255 47.8714C100.097 47.8705 99.9413 47.9076 99.801 47.9794C99.6607 48.0513 99.5398 48.1558 99.4483 48.2843C99.1996 48.6799 99.0858 49.1455 99.1239 49.6114V52.6297V54.6845H101.405V56.3754L99.1632 56.3164ZM115.1 62.0874H106.615C106.61 63.9069 107.185 65.6806 108.257 67.1506C108.57 67.5874 108.981 67.9442 109.458 68.192C109.935 68.4396 110.463 68.5713 111 68.5762C111.65 68.6027 112.291 68.42 112.829 68.0552C113.52 67.4887 114.1 66.7987 114.54 66.0199L115.1 66.4035C114.496 67.874 113.541 69.1737 112.317 70.1884C111.638 70.6591 110.872 70.9898 110.064 71.162C109.256 71.3342 108.422 71.3443 107.609 71.1915C106.797 71.0387 106.024 70.7263 105.333 70.2723C104.643 69.8183 104.049 69.2317 103.587 68.5467C102.589 66.8847 102.094 64.9688 102.162 63.0312C102.039 60.7057 102.786 58.4175 104.256 56.6114C104.845 55.8718 105.593 55.2734 106.443 54.8601C107.294 54.4468 108.226 54.2288 109.171 54.2223C109.956 54.2234 110.729 54.4007 111.436 54.741C112.142 55.0814 112.762 55.5762 113.252 56.1886C114.514 57.8909 115.165 59.9692 115.1 62.0874ZM111.03 60.9372C111.079 59.6753 110.983 58.4119 110.744 57.1718C110.613 56.578 110.313 56.0352 109.879 55.6085C109.622 55.3911 109.292 55.2786 108.955 55.2939C108.664 55.2991 108.379 55.3831 108.131 55.5372C107.884 55.6912 107.683 55.9095 107.549 56.169C106.831 57.4507 106.49 58.9095 106.566 60.3769V60.9766L111.03 60.9372ZM121.51 48.7659V54.6647H125.177V56.3657H121.51V66.305C121.496 66.9092 121.552 67.513 121.677 68.1043C121.752 68.3646 121.907 68.595 122.12 68.763C122.275 68.8846 122.463 68.9563 122.66 68.9695C123.375 68.9695 124.053 68.4025 124.695 67.2687L125.187 67.652C124.295 69.8542 122.847 70.9554 120.841 70.9554C119.999 70.9625 119.176 70.6989 118.495 70.2033C117.813 69.7077 117.309 69.0063 117.056 68.2026C116.898 67.1553 116.839 66.0954 116.879 65.0369V56.3657H114.864V55.7658C116.163 54.8259 117.353 53.7444 118.413 52.5411C119.409 51.3861 120.266 50.1193 120.969 48.7659H121.51ZM132.088 71.3781L127.094 59.4822C126.672 58.3227 126.114 57.2173 125.433 56.1886C125.09 55.7841 124.64 55.4842 124.135 55.3234V54.6845H132.354V55.3234C131.949 55.3042 131.548 55.4182 131.214 55.6479C131.109 55.7337 131.025 55.8419 130.967 55.9643C130.909 56.0867 130.879 56.2205 130.879 56.3558C131.016 57.2559 131.295 58.1288 131.705 58.9414L134.35 65.2433L136.149 60.3276C136.655 59.1775 136.987 57.9581 137.132 56.7096C137.136 56.5269 137.102 56.3452 137.033 56.1761C136.964 56.0069 136.86 55.8539 136.729 55.7266C136.313 55.4266 135.805 55.2808 135.293 55.3137V54.6746H140.465V55.3137C139.99 55.3551 139.548 55.5725 139.226 55.9231C138.542 57.0432 138.004 58.2458 137.623 59.5018L133.209 71.4173C132.595 73.3438 131.764 75.1941 130.732 76.9328C130.404 77.3843 129.974 77.7508 129.477 78.0023C128.979 78.2535 128.428 78.3824 127.871 78.3781C127.458 78.4007 127.046 78.3401 126.657 78.2001C126.269 78.0598 125.912 77.8428 125.609 77.562C125.337 77.3125 125.12 77.0087 124.973 76.6699C124.826 76.3312 124.751 75.9651 124.754 75.5958C124.733 74.9903 124.944 74.3994 125.344 73.9441C125.522 73.7349 125.744 73.5674 125.993 73.4534C126.243 73.3397 126.515 73.2823 126.789 73.2854C127.037 73.2761 127.284 73.3205 127.513 73.4155C127.742 73.5105 127.948 73.6541 128.117 73.8359C128.492 74.3205 128.677 74.9254 128.638 75.5367C128.617 75.8263 128.668 76.1166 128.785 76.3823C128.828 76.4439 128.885 76.4935 128.952 76.5262C129.02 76.559 129.094 76.5736 129.169 76.5691C129.337 76.5493 129.499 76.4945 129.645 76.4081C129.79 76.3217 129.916 76.2058 130.014 76.0677C130.714 75.0618 131.239 73.9449 131.567 72.7643L132.088 71.3781ZM174.943 47.3995V48.0384C174.563 48.0593 174.195 48.1851 173.882 48.4021C173.555 48.665 173.295 49.002 173.125 49.3854C173.059 49.5231 172.712 50.4143 172.083 52.0595L165.053 71.3387H164.404L158.85 56.2771L152.734 71.2995H152.154L144.742 52.256C144.325 51.0502 143.798 49.8853 143.168 48.7758C142.985 48.5551 142.755 48.3774 142.495 48.2552C142.235 48.1328 141.951 48.069 141.664 48.0679V47.3995H151.387V48.0384C150.84 47.9985 150.294 48.1289 149.824 48.412C149.7 48.5127 149.6 48.6402 149.532 48.7848C149.464 48.9296 149.429 49.0878 149.431 49.2477C149.571 50.2044 149.842 51.1375 150.237 52.0201L154.632 63.3557L158.151 54.5074L157.227 52.03C156.918 51.0939 156.537 50.1835 156.087 49.3067C155.854 48.8962 155.514 48.5566 155.104 48.3235C154.608 48.0992 154.065 47.9981 153.521 48.0287V47.3995H164.384V48.0384C163.831 48.0216 163.278 48.0845 162.743 48.2252C162.521 48.2968 162.327 48.4381 162.192 48.6284C162.05 48.8256 161.978 49.0639 161.986 49.3067C162.15 50.14 162.4 50.9537 162.733 51.735L166.901 62.7756L170.559 52.7674C170.832 52.0724 171.068 51.3635 171.267 50.6438C171.349 50.299 171.392 49.9461 171.394 49.5918C171.405 49.3839 171.369 49.1761 171.289 48.9839C171.209 48.7917 171.087 48.6198 170.932 48.4808C170.404 48.15 169.784 47.9953 169.163 48.0384V47.3995H174.943ZM180.144 54.655V67.4357C180.06 68.1849 180.193 68.9425 180.528 69.6183C180.724 69.8062 180.958 69.9512 181.213 70.0443C181.469 70.1374 181.741 70.1764 182.012 70.1589V70.7784H173.665V70.1492C173.949 70.1622 174.232 70.1135 174.495 70.0066C174.758 69.8995 174.995 69.737 175.189 69.5297C175.49 68.8719 175.605 68.1446 175.524 67.426V58.0174C175.608 57.2681 175.474 56.5105 175.14 55.8348C174.945 55.6481 174.713 55.5038 174.459 55.4107C174.205 55.3176 173.935 55.2779 173.665 55.2939V54.655H180.144ZM177.824 46.8489C178.166 46.8435 178.505 46.9108 178.818 47.0463C179.132 47.1821 179.413 47.3827 179.643 47.6354C179.886 47.8852 180.076 48.1806 180.205 48.5047C180.333 48.8286 180.396 49.1746 180.39 49.5231C180.396 49.8706 180.332 50.2161 180.202 50.5386C180.072 50.8612 179.878 51.1545 179.633 51.4008C179.402 51.6488 179.122 51.846 178.81 51.9798C178.499 52.1136 178.163 52.1808 177.824 52.1774C177.486 52.1813 177.152 52.1142 176.842 51.9804C176.532 51.8466 176.254 51.649 176.025 51.4008C175.782 51.153 175.591 50.8593 175.463 50.5369C175.334 50.2145 175.271 49.8698 175.278 49.5231C175.272 49.1746 175.335 48.8286 175.463 48.5047C175.591 48.1806 175.782 47.8852 176.025 47.6354C176.252 47.3842 176.53 47.1842 176.84 47.0487C177.15 46.9131 177.486 46.8451 177.824 46.8489ZM188.167 54.655V56.7391C188.813 55.9627 189.584 55.2984 190.447 54.7729C191.164 54.3688 191.974 54.1587 192.797 54.1635C193.709 54.1294 194.599 54.4382 195.294 55.0286C195.949 55.5954 196.413 56.3508 196.622 57.1914C196.847 58.4365 196.936 59.7024 196.887 60.9667V67.2391C196.809 68.0274 196.92 68.8227 197.211 69.5592C197.385 69.7424 197.594 69.8881 197.825 69.9878C198.057 70.0876 198.306 70.1391 198.558 70.1393V70.7588H190.693V70.1492C190.948 70.1309 191.195 70.0527 191.413 69.9213C191.632 69.7898 191.816 69.6084 191.952 69.3922C192.19 68.7077 192.28 67.9806 192.217 67.2588V60.1211C192.254 59.2859 192.204 58.4492 192.07 57.6241C191.99 57.3125 191.815 57.0341 191.568 56.8277C191.348 56.6437 191.069 56.5426 190.782 56.5426C189.831 56.5426 188.95 57.2505 188.137 58.6662V67.2982C188.064 68.0765 188.175 68.8613 188.462 69.5888C188.607 69.7685 188.79 69.915 188.996 70.0184C189.203 70.1219 189.43 70.1798 189.661 70.1884V70.808H181.796V70.1492C182.06 70.1425 182.32 70.0805 182.559 69.9671C182.798 69.8536 183.01 69.6913 183.182 69.4905C183.446 68.7747 183.544 68.008 183.467 67.2488V58.1549C183.544 57.3828 183.433 56.6036 183.143 55.8839C182.787 55.5204 182.304 55.309 181.796 55.2939V54.655H188.167ZM208.95 54.8418H214.161V56.7391H211.211C211.666 57.1858 212.045 57.7038 212.332 58.2729C212.662 59.0709 212.787 59.9384 212.696 60.7969C212.605 61.6554 212.301 62.4774 211.811 63.1885C211.166 64.0524 210.305 64.7305 209.314 65.1548C208.441 65.5881 207.486 65.8327 206.512 65.8726L204.546 65.784C204.314 65.779 204.083 65.8217 203.868 65.9098C203.653 65.9978 203.459 66.129 203.297 66.2953C203.135 66.4535 203.007 66.6433 202.92 66.853C202.834 67.0627 202.792 67.2876 202.796 67.5143C202.795 67.7014 202.836 67.886 202.914 68.0558C202.992 68.2256 203.106 68.3762 203.248 68.4976C203.681 68.8001 204.207 68.9395 204.732 68.8908H207.593C209.907 68.8908 211.5 69.1563 212.371 69.687C212.968 70.0219 213.459 70.5171 213.79 71.1163C214.12 71.7158 214.275 72.3956 214.239 73.0789C214.247 74.0357 213.947 74.9698 213.384 75.7431C212.817 76.5389 212.032 77.1535 211.123 77.5129C209.552 78.1027 207.884 78.3895 206.207 78.3584C204.927 78.3705 203.649 78.2287 202.402 77.9357C201.487 77.7973 200.625 77.4172 199.905 76.8346C199.682 76.6359 199.5 76.3941 199.372 76.1239C199.244 75.8537 199.171 75.5604 199.158 75.2615C199.158 74.7306 199.362 74.2201 199.728 73.8359C200.329 73.2992 201.062 72.9326 201.852 72.7742C201.231 72.532 200.695 72.1116 200.312 71.566C199.929 71.0202 199.715 70.3733 199.699 69.7068C199.718 68.8594 200.026 68.0438 200.574 67.3964C201.325 66.5212 202.28 65.8456 203.356 65.4302C202.094 65.0186 200.979 64.2461 200.151 63.2083C199.491 62.2792 199.146 61.1625 199.168 60.0229C199.166 59.2489 199.331 58.4832 199.649 57.778C199.968 57.0725 200.434 56.4435 201.016 55.933C202.32 54.7604 204.032 54.146 205.784 54.2223C206.87 54.2208 207.945 54.4311 208.95 54.8418ZM205.116 73.138C204.36 73.0813 203.6 73.1817 202.884 73.433C202.599 73.5539 202.354 73.7545 202.18 74.0107C202.005 74.2671 201.909 74.5681 201.901 74.878C201.92 75.2044 202.019 75.5208 202.191 75.799C202.363 76.0769 202.601 76.3079 202.884 76.4708C204.013 77.0563 205.285 77.3054 206.551 77.1884C207.79 77.2444 209.025 77.0263 210.169 76.5495C210.544 76.4187 210.87 76.178 211.105 75.8586C211.34 75.5393 211.473 75.1564 211.487 74.7601C211.496 74.4957 211.409 74.2369 211.241 74.0326C210.882 73.6545 210.409 73.4054 209.894 73.3248C208.307 73.1535 206.711 73.0944 205.116 73.1477V73.138ZM206.099 55.2351C205.768 55.2489 205.445 55.346 205.162 55.518C204.878 55.6899 204.642 55.9309 204.477 56.2181C204.038 56.8736 203.818 58.2663 203.818 60.3965C203.711 61.6069 203.935 62.8235 204.467 63.9162C204.618 64.1987 204.84 64.4374 205.11 64.6096C205.381 64.7818 205.691 64.8816 206.011 64.8992C206.347 64.8904 206.676 64.7954 206.965 64.6232C207.254 64.451 207.494 64.2075 207.662 63.9162C208.211 62.7692 208.438 61.4953 208.321 60.2293C208.446 58.7854 208.188 57.3341 207.574 56.0216C207.421 55.7656 207.204 55.5551 206.943 55.4115C206.681 55.268 206.387 55.1969 206.089 55.2055L206.099 55.2351Z" fill="white"/>
</g>
<defs>
<clipPath id="clip0_1_353">
<rect width="275.833" height="120.67" fill="white" transform="translate(0.56842 0.5)"/>
</clipPath>
</defs>
</svg>
