<svg width="40" height="41" viewBox="0 0 40 41" fill="none" xmlns="http://www.w3.org/2000/svg">
<rect x="0.5" y="0.87207" width="39" height="39" rx="19.5" stroke="#EC4E02"/>
<rect x="4" y="4.37207" width="32" height="32" rx="16" fill="#EC4E02"/>
<path d="M19.76 12.4665C22.2547 12.4665 22.5532 12.4772 23.534 12.5198C24.4508 12.5625 24.9412 12.7117 25.2717 12.8396C25.7088 13.0209 26.018 13.2128 26.3485 13.5433C26.6684 13.8631 26.8816 14.1829 27.0415 14.6094C27.1694 14.9505 27.3293 15.441 27.3613 16.3578C27.4146 17.3386 27.4253 17.6371 27.4253 20.1318C27.4253 22.6265 27.4146 22.9251 27.372 23.9059C27.3672 24.4993 27.2589 25.0874 27.0522 25.6436C26.8709 26.0807 26.679 26.3899 26.3485 26.7204C26.0287 27.0402 25.7088 27.2535 25.2717 27.424C24.9412 27.552 24.4508 27.7012 23.534 27.7439C22.5532 27.7865 22.2547 27.7972 19.76 27.7972C17.2653 27.7972 16.9667 27.7972 15.9753 27.7439C15.3854 27.7378 14.8011 27.6296 14.2482 27.424C13.8004 27.2535 13.5019 27.0509 13.1714 26.7204C12.8409 26.4006 12.6383 26.0807 12.4678 25.6543C12.2614 25.0942 12.1532 24.5027 12.1479 23.9059C12.1053 22.9251 12.0946 22.6265 12.0946 20.1318C12.0946 17.6371 12.0946 17.3386 12.1479 16.3578C12.1906 15.441 12.3398 14.9505 12.4678 14.62C12.6383 14.1829 12.8409 13.8738 13.1714 13.5433C13.4912 13.2234 13.8111 13.0102 14.2375 12.8503C14.5787 12.7224 15.0691 12.5625 15.9753 12.5305C16.9667 12.4772 17.2546 12.4665 19.76 12.4665ZM19.76 10.782C17.2226 10.782 16.9028 10.7927 15.9006 10.8354C14.9091 10.878 14.2268 11.0486 13.6298 11.2618C13.0221 11.507 12.4997 11.8375 11.9773 12.3492C11.4763 12.8716 11.1564 13.394 10.9006 14.0017C10.666 14.5987 10.5061 15.281 10.4741 16.2725C10.4102 17.2853 10.4102 17.6052 10.4102 20.1318C10.4102 22.6585 10.4208 22.989 10.4635 23.9805C10.5061 24.9826 10.6767 25.6543 10.8899 26.2513C11.1351 26.8697 11.4656 27.3921 11.9773 27.9145C12.4997 28.4262 13.0221 28.746 13.6298 28.9912C14.2268 29.2258 14.9091 29.3857 15.9006 29.4177C16.9028 29.471 17.2226 29.4816 19.76 29.4816C22.308 29.4816 22.6171 29.471 23.6193 29.4283C24.6108 29.3857 25.2931 29.2151 25.8901 28.9912C26.513 28.7574 27.077 28.3898 27.5426 27.9145C28.065 27.3921 28.3848 26.8697 28.6193 26.2513C28.8539 25.665 29.0138 24.9826 29.0564 23.9805C29.0991 22.989 29.1097 22.6692 29.1097 20.1318C29.1097 17.5838 29.1097 17.2747 29.0564 16.2725C29.043 15.497 28.8988 14.7293 28.63 14.0017C28.393 13.3778 28.0218 12.8137 27.5426 12.3492C27.0753 11.876 26.5117 11.5087 25.8901 11.2725C25.1634 10.9992 24.3955 10.8514 23.6193 10.8354C22.3335 10.7838 21.0466 10.7661 19.76 10.782Z" fill="white"/>
<path d="M19.7916 15.0467C18.5193 15.0467 17.299 15.5522 16.3993 16.4519C15.4996 17.3516 14.9941 18.5719 14.9941 19.8442C14.9941 21.1166 15.4996 22.3369 16.3993 23.2366C17.299 24.1363 18.5193 24.6417 19.7916 24.6417C21.064 24.6417 22.2843 24.1363 23.184 23.2366C24.0837 22.3369 24.5891 21.1166 24.5891 19.8442C24.5891 18.5719 24.0837 17.3516 23.184 16.4519C22.2843 15.5522 21.064 15.0467 19.7916 15.0467ZM19.7916 22.968C19.3821 22.968 18.9766 22.8873 18.5983 22.7306C18.22 22.5739 17.8762 22.3442 17.5866 22.0546C17.297 21.765 17.0674 21.4213 16.9106 21.0429C16.7539 20.6646 16.6733 20.2591 16.6733 19.8496C16.6733 19.4401 16.7539 19.0346 16.9106 18.6562C17.0674 18.2779 17.297 17.9341 17.5866 17.6446C17.8762 17.355 18.22 17.1253 18.5983 16.9686C18.9766 16.8119 19.3821 16.7312 19.7916 16.7312C20.6187 16.7312 21.4119 17.0597 21.9967 17.6446C22.5815 18.2294 22.91 19.0225 22.91 19.8496C22.91 20.6766 22.5815 21.4698 21.9967 22.0546C21.4119 22.6394 20.6187 22.968 19.7916 22.968ZM24.7277 16.1129C25.0246 16.1129 25.3094 15.9949 25.5193 15.785C25.7292 15.5751 25.8472 15.2903 25.8472 14.9934C25.8472 14.6966 25.7292 14.4118 25.5193 14.2019C25.3094 13.992 25.0246 13.874 24.7277 13.874C24.4308 13.874 24.1461 13.992 23.9362 14.2019C23.7263 14.4118 23.6083 14.6966 23.6083 14.9934C23.6083 15.2903 23.7263 15.5751 23.9362 15.785C24.1461 15.9949 24.4308 16.1129 24.7277 16.1129Z" fill="white"/>
</svg>
