<svg width="40" height="41" viewBox="0 0 40 41" fill="none" xmlns="http://www.w3.org/2000/svg">
<rect x="0.5" y="0.87207" width="39" height="39" rx="19.5" stroke="#EC4E02"/>
<rect x="4" y="4.37207" width="32" height="32" rx="16" fill="#EC4E02"/>
<path d="M29.2101 15.771C29.5936 17.2472 29.5936 20.3721 29.5936 20.3721C29.5936 20.3721 29.5936 23.4971 29.2101 24.9733C29.1034 25.389 28.8869 25.7685 28.5833 26.072C28.2797 26.3755 27.9001 26.592 27.4842 26.6987C26.0076 27.0821 20.0053 27.0821 20.0053 27.0821C20.0053 27.0821 14.003 27.0821 12.5264 26.6987C12.1105 26.592 11.731 26.3755 11.4274 26.072C11.1238 25.7685 10.9073 25.389 10.8005 24.9733C10.417 23.4971 10.417 20.3721 10.417 20.3721C10.417 20.3721 10.417 17.2472 10.8005 15.771C11.0306 14.9274 11.6827 14.2756 12.5264 14.0455C14.003 13.6621 20.0053 13.6621 20.0053 13.6621C20.0053 13.6621 26.0076 13.6621 27.4842 14.0455C28.328 14.2756 28.98 14.9274 29.2101 15.771ZM18.0876 23.2478L23.0736 20.3721L18.0876 17.4964V23.2478Z" fill="white"/>
</svg>
