<svg width="36" height="36" viewBox="0 0 36 36" fill="none" xmlns="http://www.w3.org/2000/svg">
<path d="M22.4999 17.0999V14.3999C22.4999 13.2064 22.0258 12.0618 21.1818 11.218C20.338 10.374 19.1934 9.8999 17.9999 9.8999C16.8064 9.8999 15.6618 10.374 14.8179 11.218C13.974 12.0618 13.4999 13.2064 13.4999 14.3999V17.0999" stroke="white" stroke-width="1.26786"/>
<path d="M11.7 23.4C11.7 24.116 11.9844 24.8028 12.4908 25.3092C12.9971 25.8155 13.6839 26.1 14.4 26.1H21.6C22.316 26.1 23.0028 25.8155 23.5091 25.3092C24.0155 24.8028 24.3 24.116 24.3 23.4V18H11.7V23.4Z" fill="white" stroke="white" stroke-width="1.26786"/>
<path d="M9.9 31.5H8.1C7.14522 31.5 6.22955 31.1207 5.55441 30.4456C4.87929 29.7705 4.5 28.8548 4.5 27.9V8.1C4.5 7.14522 4.87929 6.22955 5.55441 5.55441C6.22955 4.87929 7.14522 4.5 8.1 4.5H27.9C28.8548 4.5 29.7705 4.87929 30.4456 5.55441C31.1207 6.22955 31.5 7.14522 31.5 8.1V27.9C31.5 28.8548 31.1207 29.7705 30.4456 30.4456C29.7705 31.1207 28.8548 31.5 27.9 31.5H26.1" fill="url(#paint0_linear_1_509)" fill-opacity="0.24"/>
<path d="M9.9 31.5H8.1C7.14522 31.5 6.22955 31.1207 5.55441 30.4456C4.87929 29.7705 4.5 28.8548 4.5 27.9V8.1C4.5 7.14522 4.87929 6.22955 5.55441 5.55441C6.22955 4.87929 7.14522 4.5 8.1 4.5H27.9C28.8548 4.5 29.7705 4.87929 30.4456 5.55441C31.1207 6.22955 31.5 7.14522 31.5 8.1V27.9C31.5 28.8548 31.1207 29.7705 30.4456 30.4456C29.7705 31.1207 28.8548 31.5 27.9 31.5H26.1" stroke="white" stroke-width="1.26786" stroke-linecap="round" stroke-linejoin="round"/>
<path opacity="0.4" d="M13.4999 31.5H22.4999" stroke="white" stroke-width="1.26786" stroke-linecap="round" stroke-linejoin="round"/>
<defs>
<linearGradient id="paint0_linear_1_509" x1="18" y1="4.5" x2="18" y2="31.5" gradientUnits="userSpaceOnUse">
<stop stop-color="white" stop-opacity="0"/>
<stop offset="1" stop-color="white"/>
</linearGradient>
</defs>
</svg>
