<svg width="41" height="41" viewBox="0 0 41 41" fill="none" xmlns="http://www.w3.org/2000/svg">
<path d="M27.3858 23.3284C30.1507 22.7543 32.4572 20.1781 32.4572 17.2427C32.4572 15.6287 31.8161 14.0808 30.6747 12.9395C29.5334 11.7981 27.9855 11.157 26.3715 11.157C26.3715 9.54297 25.7304 7.99505 24.589 6.85375C23.4477 5.71246 21.8998 5.07129 20.2858 5.07129C18.6717 5.07129 17.1238 5.71246 15.9826 6.85375C14.8412 7.99505 14.2001 9.54297 14.2001 11.157C12.586 11.157 11.0381 11.7981 9.89681 12.9395C8.75552 14.0808 8.11435 15.6287 8.11435 17.2427C8.11435 20.1639 10.4391 22.7401 13.1858 23.3284" fill="url(#paint0_linear_1_470)" fill-opacity="0.24"/>
<path d="M27.3858 23.3284C30.1507 22.7543 32.4572 20.1781 32.4572 17.2427C32.4572 15.6287 31.8161 14.0808 30.6747 12.9395C29.5334 11.7981 27.9855 11.157 26.3715 11.157C26.3715 9.54297 25.7304 7.99505 24.589 6.85375C23.4477 5.71246 21.8998 5.07129 20.2858 5.07129C18.6717 5.07129 17.1238 5.71246 15.9826 6.85375C14.8412 7.99505 14.2001 9.54297 14.2001 11.157C12.586 11.157 11.0381 11.7981 9.89681 12.9395C8.75552 14.0808 8.11435 15.6287 8.11435 17.2427C8.11435 20.1639 10.4391 22.7401 13.1858 23.3284" stroke="white" stroke-width="1.01429" stroke-linecap="round" stroke-linejoin="round"/>
<path opacity="0.32" d="M13.1856 35.4999V32.457H27.3856V35.4999H13.1856Z" fill="white" stroke="white" stroke-width="1.01429" stroke-linecap="round" stroke-linejoin="round"/>
<path d="M20.2858 28.3999V18.2571" stroke="white" stroke-width="1.01429" stroke-linecap="round" stroke-linejoin="round"/>
<path d="M20.2857 17.2427L17.2429 21.2998H23.3286L20.2857 17.2427Z" fill="white" stroke="white" stroke-width="1.01429" stroke-linecap="round" stroke-linejoin="round"/>
<defs>
<linearGradient id="paint0_linear_1_470" x1="20.2858" y1="5.07129" x2="20.2858" y2="23.3284" gradientUnits="userSpaceOnUse">
<stop stop-color="white" stop-opacity="0"/>
<stop offset="1" stop-color="white"/>
</linearGradient>
</defs>
</svg>
