<svg width="242" height="103" viewBox="0 0 242 103" fill="none" xmlns="http://www.w3.org/2000/svg">
<g clip-path="url(#clip0_1_345)">
<mask id="mask0_1_345" style="mask-type:luminance" maskUnits="userSpaceOnUse" x="89" y="43" width="100" height="34">
<path d="M188.189 43.5851H89.0937V76.6169H188.189V43.5851Z" fill="white"/>
</mask>
<g mask="url(#mask0_1_345)">
<path d="M175.465 76.6169C182.835 76.6169 185.099 72.266 185.099 69.3358C185.099 63.7416 177.418 62.099 177.418 58.636C177.418 57.7034 178.04 56.5936 179.594 56.5936C181.059 56.5936 181.725 57.5703 182.08 59.435C182.257 60.4118 182.524 61.211 184.211 61.211C186.431 61.211 187.718 59.879 187.718 58.3252C187.718 56.0608 184.877 53.5302 180.082 53.5302C174.621 53.5302 170.892 56.7713 170.892 60.8558C170.892 66.7608 178.128 67.915 178.128 71.1117C178.128 71.9554 177.596 73.2427 175.775 73.2427C173.955 73.2427 173.023 71.9553 172.534 70.0019C172.312 69.0695 172.002 68.359 170.625 68.359C168.538 68.359 167.251 69.8241 167.251 71.5557C167.251 73.8644 169.604 76.6169 175.465 76.6169ZM139.458 76.6169C143.187 76.6169 145.052 75.1075 146.384 73.7311C146.828 73.2871 147.538 72.4881 148.16 72.4881C148.515 72.4881 148.87 72.71 150.069 73.9088C151.579 75.4183 153.976 76.6169 157.617 76.6169C164.543 76.6169 166.629 72.2216 166.629 69.3358C166.629 63.7862 159.57 62.0546 159.57 58.6804C159.57 57.748 160.192 56.5936 161.701 56.5936C163.211 56.5936 164.01 57.748 164.321 60.1011C164.454 61.0333 164.676 61.6106 166.185 61.6106C168.45 61.6106 170.048 60.3674 170.048 58.547C170.048 56.0608 167.118 53.5302 162.234 53.5302C156.684 53.5302 153.044 56.7713 153.044 60.8558C153.044 66.7162 159.659 67.915 159.659 71.0674C159.659 71.9553 159.082 73.2427 157.35 73.2427C153.354 73.2427 155.53 66.2278 151.179 66.2278C147.538 66.2278 146.118 70.9784 141.589 70.9784C139.458 70.9784 137.993 69.7798 137.815 68.1369C137.726 67.3823 138.037 66.9827 138.659 67.0271C139.014 67.0714 139.369 67.0714 139.724 67.0714C146.295 67.0714 151.978 63.0757 151.978 58.4139C151.978 55.2618 149.359 53.5302 145.141 53.5302C136.439 53.5302 130.534 61.4329 130.534 67.9594C130.534 72.71 133.731 76.6169 139.458 76.6169ZM139.147 64.1412C138.215 64.1412 137.948 63.9193 137.948 63.431C137.948 62.099 139.858 57.6149 143.187 57.6149C144.386 57.6149 145.141 58.1476 145.141 59.1688C145.141 61.2554 142.344 64.1412 139.147 64.1412ZM95.9926 76.6169C102.519 76.6169 104.961 70.7565 109.312 61.655L110.244 59.7015C111.709 56.5936 112.42 54.8622 113.752 54.8622C114.462 54.8622 114.906 55.3506 114.906 56.3273C114.906 57.304 114.462 58.5029 113.707 60.2343L112.731 62.454C110.91 66.6277 110.244 68.0926 110.244 70.6678C110.244 73.8199 112.686 76.6169 116.682 76.6169C122.898 76.6169 125.295 70.2681 127.693 64.5852L128.403 62.8982C132.532 53.0418 138.304 50.3335 144.386 50.3335C147.405 50.3335 149.226 50.9996 149.936 50.9996C150.691 50.9996 150.913 50.2004 150.913 49.4011C150.913 47.3145 149.314 43.5851 142.788 43.5851C133.464 43.5851 128.98 50.4223 124.363 60.9447L123.564 62.7649C122.276 65.6507 121.655 66.6277 120.544 66.6277C119.834 66.6277 119.257 66.2278 119.257 65.2069C119.257 64.5852 119.435 64.1412 120.411 61.9656L121.033 60.5895C122.72 56.86 123.342 54.7288 123.342 52.8197C123.342 49.1349 120.989 46.8705 116.948 46.8705C111.488 46.8705 109.445 50.9996 107.225 55.6614L105.36 59.5684C103.718 63.0313 101.409 68.4922 91.242 69.1583C89.91 69.247 89.3329 69.691 89.3329 71.0674C89.3329 73.9532 91.5085 76.6169 95.9926 76.6169Z" fill="white"/>
</g>
</g>
<defs>
<clipPath id="clip0_1_345">
<rect width="275.801" height="120.638" fill="white" transform="translate(0.74115 0.5)"/>
</clipPath>
</defs>
</svg>
