<svg width="169" height="84" viewBox="0 0 169 84" fill="none" xmlns="http://www.w3.org/2000/svg">
<g clip-path="url(#clip0_1_366)">
<mask id="mask0_1_366" style="mask-type:luminance" maskUnits="userSpaceOnUse" x="51" y="30" width="91" height="24">
<path d="M141.018 30.0671H51.1161V53.351H141.018V30.0671Z" fill="white"/>
</mask>
<g mask="url(#mask0_1_366)">
<path d="M87.2801 40.565C87.2801 39.9461 87.8753 39.4938 88.8754 39.4938C89.9704 39.4938 90.9232 39.8505 91.685 40.7562L93.3277 39.0414C92.4704 37.8511 90.8513 37.1604 88.8035 37.1604C85.8986 37.1604 84.4225 38.8276 84.4225 40.5659C84.4225 44.6613 90.5419 43.6612 90.5419 45.7088C90.5419 46.4232 89.9704 46.8993 88.8509 46.8993C87.494 46.8993 86.3982 46.4232 85.5172 45.4468L83.8982 47.3043C84.8747 48.4474 86.5175 49.2328 88.6844 49.2328C91.7797 49.2328 93.4223 47.59 93.4223 45.6616C93.4232 41.3987 87.2801 42.5654 87.2801 40.565Z" fill="white"/>
<path d="M99.3969 37.4936V34.5413H96.4919V37.4936H94.4678V40.0656H96.4682V44.9945C96.4682 47.7804 97.9444 49.2329 100.254 49.2329C101.659 49.2329 102.731 48.7096 103.373 48.0899L102.064 45.9229C101.778 46.256 101.254 46.4944 100.73 46.4944C99.873 46.4944 99.4206 45.9712 99.4206 44.8991V40.0656H104.715V48.8999H107.62V37.4936H104.715H99.3969Z" fill="white"/>
<path d="M106.144 32.5408C105.216 32.5408 104.453 33.3262 104.453 34.2553C104.453 35.2083 105.215 35.9464 106.144 35.9464C107.097 35.9464 107.859 35.2083 107.859 34.2553C107.859 33.3271 107.096 32.5408 106.144 32.5408Z" fill="white"/>
<path d="M115.415 46.4944C114.558 46.4944 114.106 45.9712 114.106 44.8991V40.0656H117.177V37.4936H114.082V34.5413H111.177V37.4936H109.153V40.0656H111.153V44.9945C111.153 47.7804 112.629 49.2329 114.939 49.2329C116.344 49.2329 117.416 48.7096 118.058 48.0899L116.749 45.9229C116.463 46.256 115.938 46.4944 115.415 46.4944Z" fill="white"/>
<path d="M124.653 39.8979C125.772 39.8979 126.629 40.2556 127.344 40.9454L129.01 38.8741C128.01 37.8266 126.462 37.1604 124.51 37.1604C121.176 37.1604 118.557 39.8751 118.557 43.2088C118.557 46.5188 121.176 49.2328 124.557 49.2328C126.366 49.2328 128.01 48.5184 128.915 47.5181L127.438 45.3748C126.724 46.0893 125.795 46.4943 124.629 46.4943C122.771 46.4943 121.462 45.0181 121.462 43.1842C121.462 41.3504 122.748 39.8979 124.653 39.8979Z" fill="white"/>
<path d="M136.683 37.1604C135.278 37.1604 134.183 37.6845 133.469 38.6129V32.517H130.564V48.8988H133.469V42.4225C133.469 40.8745 134.35 39.8989 135.802 39.8989C137.208 39.8989 138.113 40.8754 138.113 42.4225V48.8988H141.017V41.9929C141.017 39.0179 139.327 37.1604 136.683 37.1604Z" fill="white"/>
<path fill-rule="evenodd" clip-rule="evenodd" d="M60.5632 53.3227C61.658 53.3417 62.5939 53.3511 63.5098 53.3511C64.4249 53.3511 65.3333 53.3417 66.2852 53.3218L66.3789 53.3189C67.6375 53.2659 68.8251 52.9887 69.9075 52.4929C70.9655 52.0083 71.8948 51.3309 72.6687 50.4792C73.3927 49.6844 73.9528 48.7674 74.3352 47.7549C74.4402 47.4747 74.5319 47.189 74.6077 46.9004C76.1216 46.3364 77.4862 45.34 78.5025 44.0445C79.7128 42.5032 80.3789 40.5983 80.3789 38.6821C80.3789 37.4747 80.1244 36.3088 79.622 35.2179C79.1705 34.2384 78.53 33.3452 77.718 32.5617C76.151 31.0514 73.9916 30.1997 71.4736 30.0986L71.4264 30.0966L71.378 30.0957C70.2794 30.0767 69.3437 30.0673 68.4315 30.0673C67.5173 30.0673 66.6098 30.0767 65.6559 30.0966C65.6559 30.0966 65.5851 30.0986 65.5614 30.0995C64.3029 30.1525 63.1153 30.4297 62.0336 30.9255C60.9758 31.4101 60.0465 32.0876 59.2725 32.9392C58.5486 33.7351 57.9884 34.651 57.6062 35.6635C57.5011 35.9437 57.4093 36.2294 57.3336 36.518C55.8195 37.082 54.4551 38.0784 53.4388 39.3739C52.2285 40.9154 51.5624 42.8201 51.5624 44.7363C51.5624 45.9437 51.8168 47.1096 52.3193 48.2007C52.7707 49.18 53.4113 50.0742 54.2232 50.8568C55.7903 52.367 57.9496 53.2187 60.4647 53.3198L60.5149 53.3218L60.5632 53.3227ZM76.5359 33.788C77.1946 34.4228 77.7122 35.144 78.0746 35.9303C78.4739 36.7961 78.6763 37.7225 78.6774 38.683C78.6774 40.2197 78.1398 41.7509 77.1642 42.9942C76.2199 44.1978 74.9083 45.0815 73.472 45.4819L73.135 45.5756C73.0678 46.1121 72.9373 46.641 72.7433 47.1539C72.4367 47.9639 71.9881 48.6983 71.4101 49.3342C70.7911 50.0146 70.0475 50.5567 69.1995 50.9448C68.3185 51.3478 67.3458 51.5739 66.3086 51.6175C66.2917 51.6184 66.2746 51.6193 66.2575 51.6193H66.2509C65.3094 51.6384 64.4124 51.6478 63.5097 51.6478C62.605 51.6478 61.6785 51.6384 60.5933 51.6193L60.5648 51.6184L60.5365 51.6175C58.4415 51.5323 56.6662 50.8453 55.4049 49.6294C54.7462 48.9945 54.2287 48.2733 53.8662 47.487C53.4678 46.6211 53.2654 45.6957 53.2654 44.7353C53.2654 43.1986 53.8029 41.6675 54.7775 40.4232C55.7218 39.2195 57.0333 38.3356 58.4698 37.9354L58.8066 37.8418C58.8739 37.3052 59.0044 36.7763 59.1985 36.2634C59.505 35.4534 59.9535 34.7191 60.5317 34.0832C61.1505 33.4028 61.8943 32.8606 62.7422 32.4726C63.6222 32.0695 64.594 31.8434 65.6312 31.7998C65.6481 31.7989 65.6661 31.798 65.6832 31.798H65.6898C66.6314 31.779 67.5284 31.7695 68.4312 31.7695C69.3359 31.7695 70.2622 31.779 71.3476 31.798L71.3759 31.7989L71.4044 31.7998C73.4994 31.8851 75.2746 32.5721 76.5359 33.788ZM71.0173 40.1458C72.0705 40.8887 72.7187 42.5069 72.8019 43.0832C74.6954 42.5552 76.1858 40.742 76.1858 38.683C76.1858 37.4443 75.6522 36.395 74.808 35.5811C73.964 34.7682 72.7479 34.3472 71.304 34.2886C69.3557 34.2544 67.6949 34.2487 65.7409 34.2886H65.738C62.7593 34.4116 61.2461 36.623 61.2461 38.683C61.2461 39.9217 61.7458 40.9465 62.3997 41.6145C63.0942 42.3508 63.9156 42.8124 65.5167 43.1275C65.9614 43.2146 66.7232 43.3641 67.1063 43.772C67.3202 43.9991 67.4905 44.3303 67.4905 44.6634C67.4905 44.969 67.3855 45.3124 67.1376 45.5804C66.8982 45.8387 66.479 46.0222 66.002 46.0308C64.2487 46.0628 62.2208 46.0601 60.4664 46.0308C59.9894 46.0222 59.5703 45.8387 59.3309 45.5804C59.0829 45.3115 58.9779 44.969 58.9779 44.6634C58.9779 43.9981 59.5495 43.2961 60.6065 43.2961C60.7106 43.2942 60.8128 43.2942 60.9178 43.2951C60.9301 43.2951 60.9347 43.2799 60.9253 43.2733C59.8721 42.5304 59.2239 40.9124 59.1408 40.3361C57.2482 40.8641 55.7569 42.6771 55.7569 44.7362C55.7569 45.9749 56.2906 47.0252 57.1346 47.8381C57.9786 48.6509 59.1947 49.0721 60.6387 49.1307C62.587 49.1647 64.2478 49.1704 66.2018 49.1307H66.2046C69.1835 49.0077 70.6965 46.7963 70.6965 44.7362C70.6965 43.4975 70.1968 42.4728 69.5431 41.8048C68.8485 41.0685 68.0271 40.6067 66.4261 40.2916C65.9812 40.2045 65.2196 40.055 64.8363 39.6472C64.6225 39.4202 64.4521 39.0889 64.4521 38.7558C64.4521 38.4501 64.5572 38.1067 64.805 37.8389C65.0444 37.5806 65.4637 37.3971 65.9406 37.3885C67.694 37.3563 69.7219 37.3592 71.4763 37.3885C71.9532 37.3971 72.3723 37.5806 72.6117 37.8389C72.8597 38.1076 72.9648 38.4501 72.9648 38.7558C72.9648 39.4211 72.3931 40.1232 71.3362 40.1232C71.2321 40.1251 71.1299 40.1251 71.0248 40.1241C71.0126 40.1241 71.0079 40.1392 71.0173 40.1458Z" fill="white"/>
</g>
</g>
<defs>
<clipPath id="clip0_1_366">
<rect width="191.829" height="83.908" fill="white" transform="translate(0.152344 0.0999756)"/>
</clipPath>
</defs>
</svg>
