<svg width="243" height="103" viewBox="0 0 243 103" fill="none" xmlns="http://www.w3.org/2000/svg">
<g clip-path="url(#clip0_1_357)">
<path d="M134.698 55.2293C134.824 54.5357 134.95 53.8425 135.077 53.1497C135.141 52.7939 135.157 52.7786 135.55 52.7786C136.956 52.7786 138.361 52.7786 139.766 52.7786C140.085 52.7786 140.121 52.811 140.121 53.0913C140.121 60.77 140.121 68.4483 140.121 76.1261C140.121 76.3916 140.08 76.428 139.778 76.428H134.408C134.073 76.428 134.026 76.3879 134.026 76.088V67.9992L133.955 67.9606C133.94 67.9986 133.92 68.0352 133.896 68.0699C132.76 69.4147 131.223 70.1519 129.381 70.3883C127.824 70.5884 126.293 70.4717 124.822 69.9435C122.929 69.266 121.674 68.0165 120.89 66.3583C120.384 65.2861 120.124 64.1606 120.023 63.0046C119.866 61.1971 119.957 59.406 120.52 57.6546C121.052 56.002 121.981 54.5816 123.586 53.5731C124.609 52.9299 125.756 52.5644 126.988 52.4207C128.558 52.2384 130.111 52.2938 131.601 52.8308C132.794 53.2531 133.803 54.0101 134.475 54.9884C134.532 55.0705 134.591 55.1517 134.648 55.2332L134.698 55.2293ZM134.101 61.4119L134.172 61.4035C134.065 60.7097 133.994 60.0091 133.843 59.3228C133.695 58.5904 133.31 57.9131 132.735 57.3755C131.913 56.6185 130.879 56.3765 129.734 56.3847C128.031 56.3974 126.855 57.1238 126.28 58.5628C125.873 59.5797 125.811 60.6377 125.834 61.703C125.854 62.6068 125.964 63.4984 126.343 64.3481C126.669 65.0771 127.17 65.674 127.971 66.0284C130.271 67.0453 132.918 66.0424 133.709 63.8633C133.998 63.0655 134.103 62.2463 134.101 61.4119Z" fill="white"/>
<path d="M200.726 52.792C200.386 53.1484 200.082 53.4688 199.777 53.7884C197.771 55.8874 195.765 57.9868 193.759 60.0867C193.475 60.3811 193.475 60.4858 193.723 60.8099L200.546 69.6339C200.624 69.7362 200.702 69.8392 200.802 69.97C200.688 69.9758 200.614 69.9821 200.539 69.9821C198.592 69.9821 196.645 69.9778 194.698 69.9866C194.272 69.9866 193.972 69.8435 193.733 69.5289C192.375 67.7381 191.011 65.9502 189.641 64.1656C189.598 64.1085 189.55 64.0544 189.49 63.9826C189.432 64.0309 189.38 64.069 189.335 64.1098C188.652 64.7795 187.973 65.452 187.287 66.1187C187.232 66.1678 187.19 66.2265 187.161 66.2911C187.133 66.3555 187.12 66.4245 187.123 66.4937C187.13 67.548 187.127 68.603 187.123 69.6574C187.123 69.9396 187.079 69.9795 186.773 69.9795C184.999 69.9795 183.224 69.9795 181.45 69.9795C181.137 69.9795 181.095 69.9433 181.095 69.6619C181.095 61.8009 181.095 53.9397 181.095 46.078C181.095 45.7843 181.132 45.7513 181.461 45.7513H186.784C187.122 45.7513 187.151 45.7755 187.148 46.0735C187.127 48.6886 187.103 51.3039 187.077 53.9194C187.059 55.9365 187.039 57.9541 187.018 59.9717C187.018 60.1624 187.018 60.3567 187.018 60.597C187.099 60.5177 187.146 60.4757 187.188 60.4293C189.394 57.9942 191.599 55.5579 193.803 53.1204C194.004 52.898 194.249 52.7715 194.57 52.7715C196.564 52.7715 198.558 52.7715 200.553 52.7715C200.595 52.7786 200.633 52.7842 200.726 52.792Z" fill="white"/>
<path d="M102.849 55.8424C103.163 55.461 103.428 55.0956 103.742 54.7669C105.238 53.2004 107.179 52.4561 109.447 52.3462C110.42 52.288 111.398 52.3658 112.344 52.5764C114.649 53.1095 116.083 54.4379 116.738 56.4684C116.993 57.2674 117.12 58.0946 117.117 58.9255C117.123 62.498 117.123 66.0707 117.117 69.6432C117.117 69.9643 117.094 69.9845 116.723 69.9845H111.4C111.046 69.9845 111.016 69.9548 111.017 69.6294C111.017 66.6969 111.017 63.7642 111.017 60.8315C111.017 60.1762 110.941 59.5254 110.721 58.8956C110.374 57.9061 109.656 57.2978 108.489 57.1357C107.587 57.0086 106.7 57.0513 105.855 57.3792C104.643 57.8494 103.962 58.7271 103.655 59.8368C103.504 60.3751 103.423 60.9274 103.414 61.4822C103.39 64.1898 103.403 66.8977 103.403 69.605C103.403 69.9681 103.384 69.9864 102.977 69.9864H97.6754C97.3298 69.9864 97.2893 69.9528 97.2893 69.6529C97.2893 64.1447 97.2893 58.6383 97.2893 53.1336C97.2893 52.8216 97.3363 52.7804 97.6819 52.7804C99.1192 52.7804 100.556 52.7804 101.993 52.7804C102.332 52.7804 102.362 52.8045 102.411 53.1064C102.553 54.0076 102.699 54.9113 102.849 55.8424Z" fill="white"/>
<path d="M87.8545 67.1346C87.606 67.4473 87.3981 67.7358 87.1598 68.0022C86.1576 69.1194 84.8709 69.8454 83.3272 70.2076C81.5993 70.6166 79.7763 70.5724 78.0755 70.0805C75.9911 69.4894 74.6829 68.1987 74.0578 66.3378C73.7932 65.5265 73.6628 64.685 73.671 63.8401C73.6667 60.2683 73.6667 56.6965 73.671 53.1246C73.671 52.807 73.7057 52.7758 74.0628 52.7758H79.3621C79.7483 52.7758 79.7702 52.796 79.7702 53.1507C79.7702 56.1379 79.7595 59.1249 79.7802 62.1158C79.7769 62.7123 79.8482 63.3072 79.993 63.8897C80.36 65.2789 81.404 65.9824 82.9986 66.0021C85.0612 66.0268 86.5131 65.0184 87.0085 63.1676C87.1501 62.6416 87.2246 62.1031 87.2307 61.5623C87.2526 58.75 87.2406 55.9375 87.2412 53.1253C87.2412 52.8076 87.2768 52.7764 87.6338 52.7764H92.8856C93.2717 52.7764 93.3114 52.8076 93.3114 53.1432C93.3114 58.655 93.3114 64.1672 93.3114 69.6801C93.3114 69.9342 93.2581 69.9827 92.9616 69.9827C91.5173 69.9827 90.0724 69.9827 88.6274 69.9827C88.4038 69.9827 88.3059 69.9139 88.276 69.7105C88.1605 68.9231 88.029 68.1381 87.9027 67.352C87.8935 67.2949 87.8758 67.2337 87.8545 67.1346Z" fill="white"/>
<path d="M153.073 52.334C154.619 52.3373 156.145 52.4758 157.615 52.9238C160.099 53.6788 161.751 55.1844 162.48 57.4362C163.318 60.0196 163.339 62.633 162.469 65.2134C161.638 67.6729 159.789 69.2808 157.032 69.9837C154.241 70.6968 151.425 70.683 148.65 69.9202C145.93 69.1742 144.194 67.5053 143.433 65.0697C142.701 62.7627 142.677 60.3222 143.362 58.0038C144.198 55.1437 146.287 53.3972 149.475 52.6835C150.658 52.4185 151.859 52.3295 153.073 52.334ZM148.658 61.3752C148.658 62.2352 148.722 63.0913 148.98 63.9233C149.406 65.2985 150.352 66.1869 151.97 66.3796C152.569 66.4513 153.175 66.4597 153.776 66.405C155.461 66.2475 156.482 65.4422 156.945 63.9778C157.166 63.2439 157.278 62.4873 157.279 61.7273C157.298 60.6622 157.249 59.6027 156.861 58.5821C156.421 57.4228 155.536 56.699 154.175 56.5146C153.578 56.4349 152.973 56.4114 152.37 56.4448C150.48 56.5501 149.37 57.4095 148.925 59.0504C148.715 59.8162 148.664 60.5937 148.658 61.3752Z" fill="white"/>
<path d="M171.723 56.115C172.113 55.4922 172.526 54.9139 173.049 54.4036C174.461 53.0282 176.221 52.357 178.301 52.3361C178.564 52.3361 178.611 52.3807 178.613 52.6246C178.625 54.122 178.636 55.6194 178.646 57.1167C178.646 57.4979 178.624 57.5094 178.208 57.4979C177.16 57.4695 176.138 57.5768 175.181 57.9912C173.804 58.5855 173.027 59.6079 172.611 60.8855C172.381 61.61 172.267 62.3603 172.272 63.1136C172.272 65.2296 172.272 67.3457 172.272 69.4621C172.272 69.5537 172.272 69.6451 172.272 69.7367C172.272 69.9108 172.179 69.9909 171.98 69.9858C171.524 69.9795 171.069 69.9858 170.614 69.9858H166.539C166.201 69.9858 166.166 69.9567 166.166 69.6681C166.166 64.1557 166.166 58.6434 166.166 53.1312C166.166 52.8134 166.201 52.7817 166.558 52.7817H170.868C171.198 52.7817 171.228 52.8013 171.271 53.093C171.411 54.0252 171.548 54.9587 171.684 55.8939C171.692 55.9656 171.71 56.04 171.723 56.115Z" fill="white"/>
</g>
<defs>
<clipPath id="clip0_1_357">
<rect width="275.833" height="120.67" fill="white" transform="translate(0.395813 0.5)"/>
</clipPath>
</defs>
</svg>
