<svg width="244" height="122" viewBox="0 0 244 122" fill="none" xmlns="http://www.w3.org/2000/svg">
<g clip-path="url(#clip0_1_333)">
<mask id="mask0_1_333" style="mask-type:luminance" maskUnits="userSpaceOnUse" x="95" y="46" width="87" height="28">
<path d="M181.987 46.4398H95.7938V73.9737H181.987V46.4398Z" fill="white"/>
</mask>
<g mask="url(#mask0_1_333)">
<path d="M133.144 73.5761H126.162L130.529 46.9225H137.511L133.144 73.5761Z" fill="white"/>
<path d="M158.455 47.5745C157.078 47.0352 154.894 46.4398 152.193 46.4398C145.298 46.4398 140.442 50.069 140.412 55.2576C140.355 59.0858 143.889 61.2122 146.532 62.4885C149.233 63.7928 150.151 64.6442 150.151 65.8069C150.124 67.5924 147.969 68.4156 145.958 68.4156C143.171 68.4156 141.677 67.9913 139.407 66.9977L138.488 66.5719L137.511 72.555C139.148 73.2915 142.165 73.945 145.298 73.9735C152.624 73.9735 157.394 70.4006 157.45 64.8711C157.478 61.8369 155.612 59.512 151.589 57.6124C149.147 56.3927 147.652 55.5704 147.652 54.3226C147.68 53.1883 148.917 52.0264 151.673 52.0264C153.943 51.9695 155.611 52.508 156.874 53.0469L157.506 53.3301L158.455 47.5745Z" fill="white"/>
<path d="M167.735 64.1337C168.31 62.6025 170.523 56.6763 170.523 56.6763C170.494 56.7332 171.097 55.1168 171.441 54.1245L171.93 56.4212C171.93 56.4212 173.252 62.8011 173.539 64.1337C172.448 64.1337 169.114 64.1337 167.735 64.1337ZM176.354 46.9225H170.953C169.288 46.9225 168.022 47.4043 167.304 49.134L156.933 73.5757H164.259C164.259 73.5757 165.465 70.2859 165.724 69.5774C166.528 69.5774 173.655 69.5774 174.689 69.5774C174.889 70.5133 175.522 73.5757 175.522 73.5757H181.987L176.354 46.9225Z" fill="white"/>
<path d="M120.33 46.9225L113.492 65.0978L112.745 61.4115C111.481 57.1583 107.516 52.5371 103.091 50.2394L109.355 73.5479H116.738L127.713 46.9225H120.33Z" fill="white"/>
<path d="M107.142 46.9225H95.9086L95.7937 47.4612C104.557 49.6729 110.36 55.0044 112.745 61.4128L110.303 49.1631C109.901 47.4608 108.665 46.9787 107.142 46.9225Z" fill="white"/>
</g>
</g>
<defs>
<clipPath id="clip0_1_333">
<rect width="275.833" height="120.67" fill="white" transform="translate(0.973877 0.5)"/>
</clipPath>
</defs>
</svg>
