<svg width="168" height="84" viewBox="0 0 168 84" fill="none" xmlns="http://www.w3.org/2000/svg">
<g clip-path="url(#clip0_1_387)">
<mask id="mask0_1_387" style="mask-type:luminance" maskUnits="userSpaceOnUse" x="66" y="31" width="60" height="20">
<path d="M125.985 31.8652H66.9877V50.7445H125.985V31.8652Z" fill="white"/>
</mask>
<g mask="url(#mask0_1_387)">
<path d="M72.6808 33.1538L76.4988 45.4119H76.6426L80.4444 33.1538H86.1376L80.0081 50.538H73.1149L66.9877 33.1538H72.6808Z" fill="white"/>
<path d="M87.9967 50.5383V37.5H93.0006V50.5383H87.9967ZM90.4987 36.1419C89.853 36.1539 89.2281 35.9284 88.7579 35.5138C88.5295 35.3247 88.3466 35.0922 88.2213 34.8317C88.096 34.5715 88.0313 34.2892 88.0313 34.0036C88.0313 33.718 88.096 33.4357 88.2213 33.1755C88.3466 32.9151 88.5295 32.6827 88.7579 32.4934C89.2349 32.0893 89.8553 31.8656 90.4987 31.8656C91.1419 31.8656 91.7622 32.0893 92.2393 32.4934C92.4671 32.683 92.6494 32.9155 92.7742 33.1759C92.899 33.4362 92.9635 33.7183 92.9635 34.0036C92.9635 34.2889 92.899 34.571 92.7742 34.8313C92.6494 35.0917 92.4671 35.3243 92.2393 35.5138C91.77 35.9296 91.1445 36.1552 90.4987 36.1419Z" fill="white"/>
<path d="M103.382 47.0242C103.286 47.049 103.131 47.0771 102.918 47.109C102.745 47.1413 102.57 47.1588 102.394 47.1612C102.21 47.167 102.028 47.1383 101.857 47.0764C101.726 47.0194 101.618 46.9241 101.549 46.8049C101.479 46.661 101.445 46.5043 101.449 46.3464V40.8964H103.844V37.4999H101.461V34.3772H96.4588V37.4999H94.681V40.8964H96.4588V46.7875C96.4169 47.581 96.6148 48.3696 97.0299 49.0626C97.4386 49.6801 98.0588 50.1495 98.7891 50.3946C99.7184 50.6906 100.703 50.8029 101.681 50.725C102.175 50.7063 102.667 50.6467 103.15 50.5467C103.568 50.4585 103.888 50.3824 104.111 50.3187L103.382 47.0242Z" fill="white"/>
<path d="M109.776 50.7423C108.97 50.7573 108.168 50.619 107.42 50.336C106.766 50.0757 106.21 49.6383 105.824 49.08C105.412 48.4345 105.211 47.6908 105.243 46.9396C105.225 46.3114 105.358 45.6873 105.633 45.1142C105.88 44.6205 106.254 44.1919 106.722 43.867C107.212 43.5325 107.763 43.2824 108.346 43.1281C109.003 42.9525 109.677 42.8418 110.359 42.7977C111.132 42.7412 111.758 42.6732 112.236 42.5935C112.603 42.5482 112.956 42.4297 113.269 42.2459C113.37 42.177 113.452 42.0862 113.507 41.9814C113.562 41.8765 113.59 41.7609 113.587 41.6438V41.6091C113.595 41.4564 113.56 41.3045 113.487 41.168C113.414 41.0313 113.305 40.9146 113.169 40.829C112.852 40.6365 112.478 40.5415 112.099 40.5574C111.689 40.5424 111.284 40.6456 110.939 40.8529C110.787 40.9577 110.661 41.0915 110.569 41.2456C110.477 41.3996 110.421 41.5701 110.405 41.746H105.789C105.845 40.9619 106.123 40.206 106.594 39.5556C107.126 38.846 107.857 38.2878 108.706 37.9432C109.635 37.5347 110.79 37.3305 112.171 37.3305C113.078 37.319 113.982 37.4311 114.854 37.6629C115.581 37.8487 116.266 38.1564 116.876 38.5713C117.405 38.9269 117.839 39.3915 118.145 39.9294C118.441 40.4458 118.594 41.0232 118.589 41.6091V50.5381H113.912V48.7062H113.803C113.553 49.1601 113.207 49.5615 112.786 49.8862C112.389 50.1884 111.929 50.4103 111.436 50.5381C110.896 50.6795 110.337 50.7483 109.776 50.7423ZM111.401 47.7892C111.77 47.7929 112.136 47.7186 112.471 47.5719C112.802 47.4323 113.087 47.2125 113.297 46.9353C113.515 46.6388 113.627 46.2847 113.615 45.9248V44.8383C113.48 44.8905 113.339 44.9383 113.188 44.9838C113.037 45.0295 112.886 45.0707 112.724 45.1098C112.561 45.1489 112.385 45.1881 112.197 45.2207C112.009 45.2534 111.825 45.2859 111.626 45.3142C111.294 45.3542 110.971 45.4491 110.674 45.5944C110.452 45.7017 110.264 45.8631 110.131 46.0617C110.014 46.2463 109.954 46.4576 109.957 46.6723C109.948 46.8318 109.98 46.9909 110.051 47.1359C110.122 47.281 110.23 47.4074 110.366 47.5045C110.67 47.7053 111.036 47.8054 111.408 47.7892H111.401Z" fill="white"/>
<path d="M125.985 33.1538V50.538H120.979V33.1538H125.985Z" fill="white"/>
</g>
</g>
<defs>
<clipPath id="clip0_1_387">
<rect width="191.829" height="83.908" fill="white" transform="translate(0.10376 0.0999756)"/>
</clipPath>
</defs>
</svg>
