<svg width="170" height="85" viewBox="0 0 170 85" fill="none" xmlns="http://www.w3.org/2000/svg">
<g clip-path="url(#clip0_1_380)">
<path d="M107.285 53.1275C108.979 53.1275 111.137 53.1407 112.815 53.1232C113.604 53.1152 114.277 52.7681 114.78 52.1773C115.501 51.3377 115.621 50.3541 115.151 49.3696C114.69 48.4071 113.89 47.8693 112.783 47.8708C111.973 47.8708 111.162 47.8708 110.351 47.8708C109.481 47.8708 108.175 47.881 107.28 47.8665C107.269 47.8663 107.259 47.8683 107.249 47.8722C107.239 47.8761 107.231 47.8818 107.223 47.8891C107.216 47.8964 107.21 47.9051 107.206 47.9147C107.202 47.9243 107.2 47.9345 107.2 47.945C107.2 48.0177 107.2 48.1356 107.2 48.3276C107.213 49.7669 107.2 51.2067 107.206 52.6466C107.206 52.8555 107.206 52.9748 107.202 53.0418C107.202 53.053 107.203 53.0643 107.207 53.0749C107.211 53.0856 107.217 53.0953 107.224 53.1035C107.232 53.1116 107.242 53.1179 107.252 53.1221C107.263 53.1263 107.274 53.1281 107.285 53.1275Z" fill="white"/>
<path d="M102.904 45.8518C102.905 45.8329 102.899 45.8141 102.889 45.7981C102.879 45.7821 102.865 45.7695 102.847 45.7617C102.83 45.7539 102.811 45.7513 102.792 45.7545C102.774 45.7575 102.756 45.766 102.743 45.7789C102.653 45.8619 102.552 45.9573 102.51 45.9973C101.018 47.4524 99.5731 48.9534 98.0125 50.3374C97.9984 50.3503 97.987 50.366 97.9789 50.3834C97.9709 50.4008 97.9664 50.4195 97.9657 50.4387C97.9649 50.4577 97.9679 50.4767 97.9747 50.4947C97.9813 50.5127 97.9913 50.5292 98.0044 50.5433C98.9095 51.4709 102.006 54.4285 102.754 55.1386C102.768 55.1519 102.785 55.1608 102.804 55.1641C102.823 55.1674 102.842 55.165 102.86 55.157C102.877 55.1492 102.892 55.1364 102.902 55.1202C102.912 55.1038 102.917 55.085 102.916 55.0659C102.916 55.0659 102.906 55.0659 102.906 50.4982C102.906 49.1382 102.908 47.2691 102.904 45.8518Z" fill="white"/>
<path d="M119.117 26.8007C119.057 25.8529 118.663 24.9571 118.005 24.2723C117.347 23.5876 116.468 23.1583 115.523 23.0609L115.494 23.0413H115.151H115.111H102.261H91.9005H79.5257H79.4864H79.0294C79.0227 23.0532 79.0146 23.0645 79.0054 23.0747C78.0397 23.2013 77.1528 23.6748 76.5102 24.4069C75.8677 25.1391 75.5132 26.0798 75.5131 27.0539V31.3168L75.5233 31.3117C75.5233 33.9796 75.5233 36.6454 75.5233 39.3094C75.5233 44.6033 75.5385 49.898 75.5233 55.1926L75.5159 55.1875V57.5347C75.5159 58.5993 75.9389 59.6203 76.6917 60.3732C77.4445 61.1258 78.4655 61.5488 79.53 61.5488H84.7418H103.031C103.039 60.8117 103.001 59.6323 103.13 59.1231C103.381 58.1306 104.06 57.5841 104.931 57.1957C105.03 57.1513 105.133 57.1185 105.232 57.0749C105.285 57.0524 105.901 56.8674 105.901 56.8674L104.198 56.8617L98.5442 56.8159C97.6186 55.8823 95.0096 53.3031 95.0096 53.3031C94.0673 54.2103 92.5314 55.6939 91.5506 56.6398C91.4881 56.7006 91.4043 56.7347 91.3169 56.7344H86.1882C86.1588 56.7347 86.1302 56.7261 86.1058 56.7099C86.0813 56.6936 86.0625 56.6704 86.0515 56.6431C86.0406 56.616 86.0382 56.586 86.0445 56.5574C86.0508 56.5287 86.0658 56.5027 86.087 56.4826C86.7994 55.8015 88.7836 53.9004 89.8488 52.8505C90.5698 52.1389 91.7026 51.1407 92.4389 50.4437C92.4389 50.4437 89.3678 47.4787 87.989 46.1953C87.4514 45.6947 86.2428 44.548 85.8063 44.1354C85.7934 44.1236 85.7844 44.108 85.7805 44.0908C85.7767 44.0737 85.778 44.0558 85.7844 44.0393C85.7909 44.023 85.8021 44.0091 85.8167 43.9992C85.8312 43.9893 85.8483 43.984 85.866 43.9842C87.4499 43.9842 89.7221 43.9842 91.2748 43.9842C91.3084 43.9836 91.3418 43.9897 91.373 44.0023C91.4043 44.0148 91.4328 44.0333 91.4568 44.0569C91.7477 44.3479 92.7954 45.4007 93.2568 45.8591C93.7849 46.3852 94.3227 46.9032 94.8633 47.4162L95.0307 47.5755C95.9562 46.6544 97.5204 45.1687 98.515 44.1696C98.6356 44.0477 98.7997 43.9786 98.9712 43.9776H99.2674C103.916 43.9899 108.564 43.9703 113.212 43.9936H113.3C114.537 43.9965 115.745 44.3586 116.779 45.036C117.813 45.7134 118.628 46.6768 119.125 47.809V26.8174L119.117 26.8007Z" fill="white"/>
<path d="M113.944 56.834C113.743 56.8574 113.541 56.8683 113.34 56.8668C111.439 56.85 109.539 56.8595 107.638 56.861C107.118 56.861 107.073 56.9032 107.072 57.414C107.072 58.5052 107.072 60.3643 107.072 61.5487C109.233 61.5487 111.393 61.5474 113.554 61.5444L113.549 61.5487H115.114C116.138 61.5489 117.124 61.157 117.869 60.4536C118.614 59.7501 119.062 58.7884 119.121 57.7653L119.128 57.7538V53.0505C118.674 54.0827 117.956 54.9764 117.046 55.641C116.135 56.3055 115.065 56.7171 113.944 56.834Z" fill="white"/>
</g>
<defs>
<clipPath id="clip0_1_380">
<rect width="191.851" height="83.93" fill="white" transform="translate(0.64563 0.0999756)"/>
</clipPath>
</defs>
</svg>
