<svg width="157" height="19" viewBox="0 0 157 19" fill="none" xmlns="http://www.w3.org/2000/svg">
<path d="M150.903 18.7443C146.774 18.7443 144.383 17.0872 144.383 13.9903V13.936H146.312V14.099C146.312 16.3537 147.643 17.1415 150.93 17.1415C153.945 17.1415 154.978 16.4352 154.978 14.8868C154.978 13.4741 154.136 13.0123 151.908 12.6592L148.322 12.143C145.877 11.817 144.329 10.8662 144.329 8.63867C144.329 6.27526 146.583 4.78115 150.278 4.78115C154.136 4.78115 156.635 6.41109 156.635 9.5623V9.61663H154.706V9.4808C154.706 7.47054 153.647 6.38392 150.224 6.38392C147.398 6.38392 146.23 7.06306 146.23 8.66583C146.23 10.0513 146.937 10.5403 149.164 10.8662L152.451 11.3281C155.331 11.7355 156.879 12.7135 156.879 14.8868C156.879 17.4132 154.38 18.7443 150.903 18.7443Z" fill="white"/>
<path d="M135.74 18.7443C131.448 18.7443 128.65 15.8376 128.65 11.7627C128.65 7.68787 131.448 4.78115 135.74 4.78115C139.489 4.78115 142.423 7.00873 142.423 10.2414V10.4588H140.522V10.2958C140.522 7.90519 138.783 6.54691 135.713 6.54691C132.127 6.54691 130.579 8.47567 130.579 11.7627C130.579 15.0497 132.127 16.9785 135.713 16.9785C138.783 16.9785 140.522 15.6202 140.522 13.2297V13.0667H142.423V13.284C142.423 16.5167 139.489 18.7443 135.74 18.7443Z" fill="white"/>
<path d="M126.085 3.34137H124.156V0.27166H126.085V3.34137ZM126.085 18.4726H124.156V5.05281H126.085V18.4726Z" fill="white"/>
<path d="M122.041 18.4726H119.134C116.472 18.4726 114.761 17.3588 114.761 14.2076V6.70991H112.37V5.05281H114.761V1.84727H116.717V5.05281H122.041V6.70991H116.717V14.3163C116.717 16.1907 117.64 16.7069 119.596 16.7069H122.041V18.4726Z" fill="white"/>
<path d="M103.936 18.7443C99.5625 18.7443 96.6558 15.8376 96.6558 11.7627C96.6558 7.68787 99.5625 4.78115 103.936 4.78115C108.337 4.78115 111.244 7.68787 111.244 11.7627C111.244 15.8376 108.337 18.7443 103.936 18.7443ZM103.936 17.0057C107.631 17.0057 109.342 15.0226 109.342 11.7627C109.342 8.53 107.631 6.51975 103.936 6.51975C100.242 6.51975 98.5574 8.53 98.5574 11.7627C98.5574 15.0226 100.242 17.0057 103.936 17.0057Z" fill="white"/>
<path d="M89.3369 18.4726H79.503V0.27166H89.0653C92.3252 0.27166 94.4712 1.9016 94.4712 4.78115C94.4712 6.8729 93.3031 8.44851 90.8039 8.82882V8.99182C93.6019 9.45363 95.0417 11.1107 95.0417 13.447C95.0417 16.5982 92.8141 18.4726 89.3369 18.4726ZM81.4317 2.03742V8.20402H88.7393C91.2114 8.20402 92.5425 7.22605 92.5425 5.1343C92.5425 3.01539 91.3744 2.03742 88.9023 2.03742H81.4317ZM81.4317 9.86112V16.7068H89.1739C91.7547 16.7068 93.0858 15.6474 93.0858 13.2568C93.0858 10.9206 91.7003 9.86112 89.1739 9.86112H81.4317Z" fill="white"/>
<path d="M67.5117 18.7443C61.4809 18.7443 57.7321 15.0497 57.7321 9.37213C57.7321 3.69452 61.4809 0 67.5117 0C73.6783 0 77.4 3.69452 77.4 9.37213C77.4 15.0497 73.6783 18.7443 67.5117 18.7443ZM67.5117 14.8324C71.505 14.8324 73.0535 13.4198 73.0535 9.37213C73.0535 5.32446 71.505 3.91185 67.5117 3.91185C63.5183 3.91185 62.0514 5.32446 62.0514 9.37213C62.0514 13.4198 63.5183 14.8324 67.5117 14.8324Z" fill="#EC4E02"/>
<path d="M42.3707 18.4726H38.2959V0.27166H42.3707V7.49771H51.8787V0.27166H55.9535V18.4726H51.8787V11.1651H42.3707V18.4726Z" fill="#EC4E02"/>
<path d="M27.2394 18.7443C21.2358 18.7443 17.5142 15.0497 17.5142 9.37213C17.5142 3.69452 21.2358 0 27.2394 0C32.8899 0 36.5301 2.82522 36.5301 7.44337V7.85086H31.9934V7.44337C31.9934 5.0528 30.6351 3.91185 27.3209 3.91185C23.3276 3.91185 21.8335 5.32446 21.8335 9.37213C21.8335 13.4198 23.3276 14.8324 27.3209 14.8324C30.6351 14.8324 31.9934 13.6915 31.9934 11.3009V10.8934H36.5301V11.3009C36.5301 15.919 32.9171 18.7443 27.2394 18.7443Z" fill="#EC4E02"/>
<path d="M16.0808 18.4726H0.677856V0.27166H16.0808V3.93902H4.7527V7.49771H15.6733V11.1379H4.7527V14.8053H16.0808V18.4726Z" fill="#EC4E02"/>
</svg>
